<?xml version="1.0" encoding="utf-8"?>
<!-- Generator: Adobe Illustrator 24.1.0, SVG Export Plug-In . SVG Version: 6.00 Build 0)  -->
<svg version="1.1" id="Layer_1" xmlns="http://www.w3.org/2000/svg" xmlns:xlink="http://www.w3.org/1999/xlink" x="0px" y="0px"
	 viewBox="0 0 182 152" style="enable-background:new 0 0 182 152;" xml:space="preserve">
<style type="text/css">
	.st0{fill:#F9F4DE;}
	.st1{fill:#00861C;}
	.st2{fill:none;stroke:#000000;stroke-width:2;stroke-linecap:round;stroke-linejoin:round;stroke-dasharray:3.9986,7.9972;}
	.st3{fill:none;stroke:#000000;stroke-width:2;stroke-miterlimit:10;}
	.st4{fill:#231F20;stroke:#FFFFFF;stroke-width:2;stroke-linejoin:round;stroke-miterlimit:10;}
	.st5{fill:#FF4040;}
	.st6{stroke:#FF4040;stroke-width:2;stroke-linejoin:round;stroke-miterlimit:10;}
	.st7{fill:#FFFFFF;}
	.st8{fill:#FFD506;}
	.st9{font-family:'ProximaNovaA-Bold';}
	.st10{font-size:24.2078px;}
	.st11{font-size:28.7946px;}
</style>
<rect x="-1464" y="-25.5" class="st0" width="1024" height="201"/>
<text transform="matrix(1 0 0 1 -1329.0542 70.2383)" class="st9" style="font-size:68.1841px;">JUNETEENTH</text>
<text transform="matrix(1 0 0 1 -1329.0542 132.8242)"><tspan x="0" y="0" class="st9" style="fill:none;stroke:#231F20;stroke-miterlimit:10; font-size:71.0108px; letter-spacing:-5;">W</tspan><tspan x="59.22" y="0" class="st9" style="fill:none;stroke:#231F20;stroke-miterlimit:10; font-size:71.0108px; letter-spacing:1;">A</tspan><tspan x="109.21" y="0" class="st9" style="fill:none;stroke:#231F20;stroke-miterlimit:10; font-size:71.0108px;">LKOUT</tspan></text>
<g>
	<circle class="st1" cx="-621.52" cy="96.24" r="48.41"/>
	<g>

			<ellipse transform="matrix(0.9985 -0.0553 0.0553 0.9985 -6.2729 -34.2229)" class="st2" cx="-621.52" cy="96.24" rx="43.92" ry="43.92"/>
	</g>
	<text transform="matrix(1 0 0 1 -637.1182 88.5503)"><tspan x="0" y="0" class="st8 st9 st10">06</tspan><tspan x="0.19" y="34.55" class="st8 st9 st11">19</tspan></text>
	<line class="st3" x1="-637.36" y1="95.26" x2="-608.46" y2="95.26"/>
</g>
<g>
	<g>
		<path class="st4" d="M-749.12,119"/>
		<path class="st5" d="M-637.45,57.06c0-30.96-25.1-56.06-56.06-56.06s-56.06,25.1-56.06,56.06c0,24.35,15.52,45.06,37.21,52.8
			V77.99h36.4v32.32C-653.6,102.94-637.45,81.89-637.45,57.06z"/>
		<path class="st6" d="M-669.86,49.45l-48.92-0.01V63.8c0,13.52,10.96,24.49,24.49,24.49c13.53,0,24.49-10.96,24.49-24.49
			C-669.8,63.8-669.86,49.04-669.86,49.45z"/>
		<path d="M-712.36,77.99v31.88c5.89,2.1,12.24,3.26,18.85,3.26c6.13,0,12.03-1,17.55-2.82V77.99H-712.36z"/>
		<path class="st6" d="M-718.84,55.94c0,3.38,2.74,6.12,6.12,6.12s6.12-2.74,6.12-6.12V44c0-3.38-2.74-6.12-6.12-6.12
			s-6.12,2.74-6.12,6.12V55.94z"/>
		<path class="st6" d="M-682.11,55.86c0,3.38,2.74,6.12,6.12,6.12s6.12-2.74,6.12-6.12V43.93c0-3.38-2.74-6.12-6.12-6.12
			s-6.12,2.74-6.12,6.12V55.86z"/>
		<path class="st6" d="M-706.6,55.94c0,3.38,2.74,6.12,6.12,6.12s6.12-2.74,6.12-6.12V38.58c0-3.38-2.74-6.12-6.12-6.12
			s-6.12,2.74-6.12,6.12V55.94z"/>
		<path class="st6" d="M-694.36,55.94c0,3.38,2.74,6.12,6.12,6.12c3.38,0,6.12-2.74,6.12-6.12V38.58c0-3.38-2.74-6.12-6.12-6.12
			c-3.38,0-6.12,2.74-6.12,6.12V55.94z"/>
		<path class="st6" d="M-669.87,59.65c0-3.54-2.87-6.41-6.41-6.41h-21.7c-3.54,0-6.41,2.87-6.41,6.41s2.87,6.41,6.41,6.41h15.37
			l8.37,11.99c0,0,4.07-5.65,4.28-12.17S-669.87,59.65-669.87,59.65z"/>
	</g>
	<g>
		<path class="st7" d="M-733.92,44.66l-0.81-1.29c0.42-0.14,0.86-0.37,1.12-0.87c0.36-0.68,0.13-1.37-0.56-1.73l-4.81-2.56
			l0.82-1.54l4.83,2.57c1.69,0.9,1.92,2.39,1.14,3.86C-732.56,43.83-733.13,44.41-733.92,44.66z"/>
		<path class="st7" d="M-731.1,34.72l-3.66-3.23l1.16-1.32l3.63,3.19c0.85,0.75,1.87,0.77,2.7-0.17c0.83-0.94,0.67-1.94-0.18-2.69
			l-3.63-3.19l1.17-1.33l3.66,3.23c1.51,1.33,1.76,3.15,0.13,5.01C-727.75,36.07-729.59,36.05-731.1,34.72z"/>
		<path class="st7" d="M-715.93,25.46l-6.17-2.27l2.94,4.42l-1.44,0.96l-4.51-6.78l1.48-0.99l5.97,2.17l-2.83-4.26l1.44-0.96
			l4.51,6.78L-715.93,25.46z"/>
		<path class="st7" d="M-710.62,22.71l-2.71-7.68l5.43-1.91l0.51,1.44l-3.8,1.34l0.57,1.61l3.72-1.31l0.51,1.44l-3.72,1.31
			l0.62,1.75l3.8-1.34l0.51,1.44L-710.62,22.71z"/>
		<path class="st7" d="M-699.39,19.7l-0.75-6.57l-2.36,0.27l-0.17-1.51l6.45-0.74l0.17,1.52l-2.35,0.27l0.75,6.57L-699.39,19.7z"/>
		<path class="st7" d="M-691.46,19.28l0.89-8.09l5.73,0.63l-0.17,1.52l-4.01-0.44l-0.19,1.7l3.92,0.43l-0.17,1.52l-3.92-0.43
			l-0.2,1.84l4.01,0.44l-0.17,1.52L-691.46,19.28z"/>
		<path class="st7" d="M-681.76,20.84l2.68-7.69l5.44,1.9l-0.5,1.44l-3.8-1.33l-0.56,1.61l3.72,1.3l-0.5,1.44l-3.72-1.3l-0.61,1.75
			l3.8,1.33l-0.5,1.44L-681.76,20.84z"/>
		<path class="st7" d="M-667.99,27.54l-0.33-6.57l-2.92,4.44l-1.45-0.95l4.47-6.8l1.49,0.98l0.34,6.35l2.81-4.27l1.45,0.95
			l-4.47,6.8L-667.99,27.54z"/>
		<path class="st7" d="M-662.13,32.7l4.86-4.49l-1.61-1.75l1.12-1.03l4.4,4.77l-1.12,1.03l-1.61-1.74l-4.86,4.49L-662.13,32.7z"/>
		<path class="st7" d="M-654.41,43.67l3.01-1.65l-1.85-3.37l-3.01,1.65l-0.83-1.52l7.15-3.91l0.83,1.52l-2.81,1.54l1.85,3.37
			l2.81-1.54l0.84,1.53l-7.15,3.91L-654.41,43.67z"/>
	</g>
</g>
<g>
	<circle class="st1" cx="131.83" cy="98.92" r="48.41"/>
	<g>
		<circle class="st2" cx="131.83" cy="98.92" r="43.92"/>
	</g>
	<text transform="matrix(1 0 0 1 116.2247 91.2298)"><tspan x="0" y="0" class="st8 st9 st10">06</tspan><tspan x="0.19" y="34.55" class="st8 st9 st11">19</tspan></text>
	<line class="st3" x1="115.99" y1="97.94" x2="144.89" y2="97.94"/>
</g>
<g>
	<g>
		<path class="st4" d="M4.23,121.68"/>
		<path class="st5" d="M115.89,59.74c0-30.96-25.1-56.06-56.06-56.06S3.77,28.78,3.77,59.74c0,24.35,15.52,45.06,37.21,52.8V80.67
			h36.4v32.32C99.75,105.62,115.89,84.57,115.89,59.74z"/>
		<path class="st6" d="M83.48,52.13l-48.92-0.01v14.36c0,13.52,10.96,24.49,24.49,24.49s24.49-10.96,24.49-24.49
			C83.54,66.48,83.48,51.72,83.48,52.13z"/>
		<path d="M40.98,80.67v31.88c5.89,2.1,12.24,3.26,18.85,3.26c6.13,0,12.03-1,17.55-2.82V80.67H40.98z"/>
		<path class="st6" d="M34.5,58.62c0,3.38,2.74,6.12,6.12,6.12s6.12-2.74,6.12-6.12V46.68c0-3.38-2.74-6.12-6.12-6.12
			s-6.12,2.74-6.12,6.12V58.62z"/>
		<path class="st6" d="M71.23,58.54c0,3.38,2.74,6.12,6.12,6.12c3.38,0,6.12-2.74,6.12-6.12V46.6c0-3.38-2.74-6.12-6.12-6.12
			c-3.38,0-6.12,2.74-6.12,6.12V58.54z"/>
		<path class="st6" d="M46.75,58.62c0,3.38,2.74,6.12,6.12,6.12s6.12-2.74,6.12-6.12V41.26c0-3.38-2.74-6.12-6.12-6.12
			s-6.12,2.74-6.12,6.12V58.62z"/>
		<path class="st6" d="M58.99,58.62c0,3.38,2.74,6.12,6.12,6.12c3.38,0,6.12-2.74,6.12-6.12V41.26c0-3.38-2.74-6.12-6.12-6.12
			c-3.38,0-6.12,2.74-6.12,6.12V58.62z"/>
		<path class="st6" d="M83.48,62.33c0-3.54-2.87-6.41-6.41-6.41h-21.7c-3.54,0-6.41,2.87-6.41,6.41s2.87,6.41,6.41,6.41h15.37
			l8.37,11.99c0,0,4.07-5.65,4.28-12.17S83.48,62.33,83.48,62.33z"/>
	</g>
	<g>
		<path class="st7" d="M19.43,47.34l-0.81-1.29c0.42-0.14,0.86-0.37,1.12-0.87c0.36-0.68,0.13-1.37-0.56-1.73l-4.81-2.56l0.82-1.54
			l4.83,2.57c1.69,0.9,1.92,2.39,1.14,3.86C20.78,46.51,20.21,47.09,19.43,47.34z"/>
		<path class="st7" d="M22.25,37.4l-3.66-3.23l1.16-1.32l3.63,3.19c0.85,0.75,1.87,0.77,2.7-0.17c0.83-0.94,0.67-1.94-0.18-2.69
			l-3.63-3.19l1.17-1.33l3.66,3.23c1.51,1.33,1.76,3.15,0.13,5.01C25.59,38.75,23.76,38.73,22.25,37.4z"/>
		<path class="st7" d="M37.42,28.14l-6.17-2.27l2.94,4.42l-1.44,0.96l-4.51-6.78l1.48-0.99l5.97,2.17l-2.83-4.26l1.44-0.96
			l4.51,6.78L37.42,28.14z"/>
		<path class="st7" d="M42.72,25.39l-2.71-7.68l5.43-1.91l0.51,1.44l-3.8,1.34l0.57,1.61l3.72-1.31l0.51,1.44l-3.72,1.31l0.62,1.75
			l3.8-1.34l0.51,1.44L42.72,25.39z"/>
		<path class="st7" d="M53.95,22.38l-0.75-6.57l-2.36,0.27l-0.17-1.51l6.45-0.74l0.17,1.52l-2.35,0.27l0.75,6.57L53.95,22.38z"/>
		<path class="st7" d="M61.88,21.96l0.89-8.09l5.73,0.63l-0.17,1.52l-4.01-0.44l-0.19,1.7l3.92,0.43l-0.17,1.52l-3.92-0.43
			l-0.2,1.84l4.01,0.44l-0.17,1.52L61.88,21.96z"/>
		<path class="st7" d="M71.58,23.52l2.68-7.69l5.44,1.9l-0.5,1.44l-3.8-1.33l-0.56,1.61l3.72,1.3l-0.5,1.44l-3.72-1.3l-0.61,1.75
			l3.8,1.33l-0.5,1.44L71.58,23.52z"/>
		<path class="st7" d="M85.35,30.22l-0.33-6.57l-2.92,4.44l-1.45-0.95l4.47-6.8l1.49,0.98l0.34,6.35l2.81-4.27l1.45,0.95l-4.47,6.8
			L85.35,30.22z"/>
		<path class="st7" d="M91.22,35.38l4.86-4.49l-1.61-1.75l1.12-1.03l4.4,4.77l-1.12,1.03l-1.61-1.74l-4.86,4.49L91.22,35.38z"/>
		<path class="st7" d="M98.94,46.35l3.01-1.65l-1.85-3.37l-3.01,1.65l-0.83-1.52l7.15-3.91l0.83,1.52l-2.81,1.54l1.85,3.37
			l2.81-1.54l0.84,1.53l-7.15,3.91L98.94,46.35z"/>
	</g>
</g>
</svg>
